<?xml version="1.0" encoding="UTF-8"?>
<!DOCTYPE svg PUBLIC "-//W3C//DTD SVG 1.1//EN" "http://www.w3.org/Graphics/SVG/1.1/DTD/svg11.dtd">
<svg xmlns="http://www.w3.org/2000/svg" version="1.1" width="6008px" height="6008px" style="shape-rendering:geometricPrecision; text-rendering:geometricPrecision; image-rendering:optimizeQuality; fill-rule:evenodd; clip-rule:evenodd" xmlns:xlink="http://www.w3.org/1999/xlink">
<g><path style="opacity:0.467" fill="#fc3f1d" d="M -0.5,-0.5 C 2002.17,-0.5 4004.83,-0.5 6007.5,-0.5C 6007.5,2002.17 6007.5,4004.83 6007.5,6007.5C 4004.83,6007.5 2002.17,6007.5 -0.5,6007.5C -0.5,4004.83 -0.5,2002.17 -0.5,-0.5 Z"/></g>
<g><path style="opacity:1" fill="#fffefe" d="M 3042.5,1234.5 C 3352.17,1234.5 3661.83,1234.5 3971.5,1234.5C 3971.5,2369.5 3971.5,3504.5 3971.5,4639.5C 3772.83,4639.5 3574.17,4639.5 3375.5,4639.5C 3375.5,3657.83 3375.5,2676.17 3375.5,1694.5C 3270.17,1694.33 3164.83,1694.5 3059.5,1695C 2969.76,1697.68 2881.76,1711.35 2795.5,1736C 2703.33,1762.9 2621,1807.24 2548.5,1869C 2459.01,1950.77 2402.85,2051.6 2380,2171.5C 2369.16,2228.69 2365.5,2286.36 2369,2344.5C 2370.73,2437.52 2386.06,2528.18 2415,2616.5C 2449.74,2713.38 2501.74,2799.38 2571,2874.5C 2622.56,2929.74 2678.06,2980.24 2737.5,3026C 2786.28,3063.22 2835.95,3099.22 2886.5,3134C 2994.33,3205.67 3101.99,3277.5 3209.5,3349.5C 2921.62,3779.42 2633.62,4209.25 2345.5,4639C 2131.17,4639.83 1916.83,4639.67 1702.5,4638.5C 1960.96,4255.07 2219.3,3871.57 2477.5,3488C 2399.27,3431.8 2323.27,3372.46 2249.5,3310C 2155.76,3229.94 2072.26,3140.78 1999,3042.5C 1877.03,2873.41 1806.7,2684.41 1788,2475.5C 1773.96,2334.85 1781.96,2195.51 1812,2057.5C 1881.78,1765.3 2048.61,1548.13 2312.5,1406C 2416.01,1352.05 2524.67,1311.72 2638.5,1285C 2771.58,1254.6 2906.25,1237.77 3042.5,1234.5 Z"/></g>
</svg>
